<svg width="113" height="39" viewBox="0 0 113 39" fill="none" xmlns="http://www.w3.org/2000/svg">
<path fill-rule="evenodd" clip-rule="evenodd" d="M10.9493 0.0253756C10.9116 0.0842113 9.78079 0.33335 9.28406 0.392185C9.09153 0.414908 8.8759 0.497278 8.80472 0.575185C8.73366 0.652888 8.52234 0.64031 8.33518 0.546984C8.1465 0.452847 7.65841 0.460962 7.23928 0.565243C6.82364 0.668509 6.26274 0.704217 5.99285 0.644366C5.72284 0.584516 5.47535 0.610486 5.44291 0.701783C5.41035 0.793283 4.7386 0.928401 3.95004 1.00205C3.16148 1.07569 2.49883 1.22684 2.47748 1.33802C2.4315 1.5762 2.10794 1.61292 2.10794 1.37981C2.10794 1.29156 1.79207 1.19783 1.40608 1.17145C0.751356 1.12641 0.696863 1.15766 0.592197 1.63585C0.469794 2.1956 0.240975 2.33133 0.240975 1.84421C0.240975 1.67683 0.188467 1.53989 0.12429 1.53989C-0.105462 1.53989 0.00947292 2.30495 0.256145 2.41715C0.442258 2.50175 0.48263 2.62226 0.417053 2.89717C0.280882 3.46787 0.204337 5.11324 0.2873 5.688C0.32849 5.97305 0.440273 6.20616 0.535955 6.20616C0.681345 6.20616 0.685778 6.27656 0.562792 6.6385C0.444824 6.98604 0.444824 7.0889 0.563143 7.16336C0.644122 7.21428 0.76209 7.42386 0.825333 7.62938C0.914598 7.9195 0.871424 8.14511 0.630936 8.64176C0.262212 9.40378 0.100604 11.1895 0.370847 11.518C0.4957 11.67 0.499316 11.7383 0.386832 11.8177C0.193835 11.954 0.200603 12.4338 0.398501 12.6375C0.587647 12.8323 0.705615 14.2563 0.78181 17.2632C0.812848 18.4906 0.877142 19.997 0.924516 20.6108C0.971891 21.2245 0.994061 23.9177 0.973875 26.5958C0.940503 30.9995 0.956022 31.4891 1.1363 31.7185C1.31751 31.949 1.31168 31.9721 1.07236 31.9721C0.682978 31.9721 0.35766 32.3396 0.35766 32.7792C0.35766 33.3038 0.793479 33.7981 1.2559 33.7981C1.61389 33.7981 1.63151 33.8319 1.56652 34.397C1.50619 34.921 1.53665 35.0129 1.81062 35.1324C1.98285 35.2077 2.29078 35.1862 2.49498 35.0851C2.77934 34.9441 2.87502 34.7717 2.90326 34.3495C2.93652 33.8535 2.98926 33.795 3.42834 33.7674C3.69684 33.7506 4.10033 33.7246 4.32495 33.7098C4.54957 33.695 5.46846 33.7634 6.36694 33.8618C7.26541 33.9604 8.55187 34.0659 9.22572 34.0965C10.7721 34.1667 10.8741 34.1919 11.12 34.5637C11.2649 34.7826 11.5548 34.8593 12.1396 34.8338C12.5889 34.8141 13.7319 34.9352 14.6792 35.1032C16.7516 35.4704 19.0344 35.7033 19.8441 35.6301C20.0045 35.6157 20.6083 35.6569 21.1859 35.7218C26.1627 36.2807 32.1175 36.695 34.8381 36.6713C35.4157 36.6662 36.0585 36.7405 36.2665 36.8364C36.5012 36.9444 36.6719 36.9346 36.7159 36.8107C36.755 36.7007 36.8556 36.6565 36.9393 36.7125C37.0232 36.7683 37.3986 36.6934 37.7735 36.5459C38.4736 36.2704 41.8551 35.9577 43.4144 36.0245C43.8958 36.0452 45.5235 36.0803 47.0317 36.1028C49.6592 36.1418 50.1512 36.2331 50.0015 36.6542C49.8692 37.0263 50.079 37.6141 50.5442 38.1746C51.003 38.7273 51.0638 38.7443 52.7868 38.804C53.7609 38.8377 54.6961 38.9074 54.8651 38.9594C55.1541 39.0478 55.1645 39.0239 55.0401 38.5575C54.9423 38.1911 54.8151 38.0614 54.552 38.0602C54.3563 38.0594 54.1331 38.1681 54.0561 38.302C53.9757 38.4418 53.9161 38.4579 53.9161 38.3398C53.9161 38.2266 53.6758 38.1428 53.3821 38.1535C53.0884 38.1641 52.8229 38.1016 52.7918 38.0144C52.7608 37.9271 52.5351 37.8557 52.2902 37.8557C51.6299 37.8557 51.2009 37.6662 50.8785 37.232C50.4474 36.6516 50.7435 36.4422 52.0012 36.4386C53.0201 36.4357 53.0671 36.4554 53.1947 36.9427C53.3239 37.4355 53.3616 37.4499 54.5262 37.4522C55.8279 37.4546 56.5998 37.6106 56.5998 37.8715C56.5998 37.9624 56.3766 37.9906 56.1039 37.9338C55.5371 37.8159 55.1363 38.1763 55.3079 38.6494C55.3809 38.8508 55.5965 38.9188 56.035 38.8784C56.3778 38.847 56.7369 38.8239 56.8332 38.8273C56.9295 38.8307 57.4283 38.8364 57.9417 38.8401C58.4551 38.8435 58.9754 38.8472 59.0979 38.848C59.4484 38.8508 59.7488 38.4909 59.6752 38.157C59.6386 37.9912 59.6668 37.8557 59.7379 37.8557C59.8089 37.8557 59.867 38.0286 59.867 38.2398C59.867 38.7173 60.018 38.8111 60.6838 38.7466C60.9726 38.7188 61.7602 38.6409 62.4341 38.5737C64.4887 38.3688 65.6133 38.3045 69.3768 38.1761C71.3663 38.1083 73.5506 37.9521 74.2308 37.8291C75.1399 37.665 75.5321 37.6658 75.7114 37.8328C75.8456 37.9575 75.9824 37.9837 76.0154 37.8908C76.084 37.6977 78.3546 37.7616 78.5409 37.9618C78.6084 38.0342 78.7353 37.99 78.8231 37.8634C78.9331 37.7046 79.0062 37.6993 79.0584 37.8466C79.1311 38.0511 79.6171 37.988 80.1119 37.71C80.3918 37.5528 82.1284 37.6015 82.2863 37.7711C82.3474 37.8368 82.461 37.7991 82.5386 37.6871C82.6264 37.5603 83.0097 37.54 83.5544 37.6331C84.0355 37.7155 84.823 37.767 85.3044 37.7476C85.7857 37.7279 86.301 37.79 86.4494 37.8851C86.6656 38.0239 89.2368 38.0744 93.1223 38.0164C93.3469 38.0131 94.1488 38.0334 94.9044 38.0616C96.0828 38.1057 96.3108 38.0616 96.507 37.7528C96.6929 37.4603 96.9822 37.3836 98.0503 37.3436C99.7454 37.2801 101.153 37.076 101.393 36.8591C101.497 36.765 102.311 36.7204 103.202 36.7599C104.093 36.7995 104.874 36.7764 104.937 36.7082C105.086 36.5485 106.177 36.5465 106.269 36.7056C106.307 36.7723 106.433 36.7388 106.549 36.6313C106.681 36.5082 106.866 36.5059 107.047 36.6254C107.205 36.7299 107.364 36.7628 107.401 36.6985C107.438 36.6341 107.667 36.5593 107.909 36.5323C108.891 36.4227 109.999 36.1722 110.26 36.0008C110.552 35.808 111.181 35.0154 111.041 35.0154C110.995 35.0154 111.039 34.876 111.136 34.7058C111.234 34.5353 111.375 33.863 111.449 33.2113L111.583 32.0267L112.071 32.1225C112.41 32.1888 112.602 32.1281 112.7 31.9238C112.856 31.5978 113.048 28.1269 112.989 26.6972C112.969 26.1951 112.937 22.6802 112.919 18.8863C112.894 13.5801 112.839 11.4322 112.681 9.57846C112.567 8.25304 112.434 6.97488 112.384 6.73812C112.334 6.50136 112.305 5.66853 112.321 4.88743C112.336 4.10634 112.3 3.36318 112.242 3.23598C112.173 3.08808 112.222 2.74703 112.377 2.29035L112.619 1.576L112.355 1.25362C112.209 1.0763 112.01 0.928402 111.912 0.92475C111.814 0.921301 111.632 0.784356 111.507 0.620427C111.206 0.225214 110.802 0.243879 110.428 0.670742C110.096 1.04891 109.385 1.09923 106.424 0.953356C104.451 0.856175 103.638 1.03045 102.74 1.74257C102.145 2.21508 101.726 2.35446 100.115 2.61516C99.0607 2.78599 97.5417 2.88986 96.7395 2.84604C95.1425 2.759 90.9038 2.69225 90.4385 2.74703C89.2704 2.88438 80.1094 2.43054 79.9156 2.22583C79.8718 2.17937 78.7692 2.09396 77.4652 2.03573C74.5517 1.90588 74.0297 1.85719 71.2438 1.45549C70.0245 1.27959 68.6855 1.14488 68.2683 1.15624C67.8512 1.1674 67.2736 1.18444 66.9848 1.19397C66.0302 1.22522 64.0113 1.07062 63.8932 0.95721C63.8293 0.89594 63.5668 0.838322 63.3098 0.829192C63.0528 0.820063 62.4565 0.735258 61.9849 0.640715C61.1831 0.480236 61.1299 0.493625 61.1691 0.847248C61.1921 1.0552 61.3329 1.33112 61.4821 1.46036C61.7274 1.67298 61.6775 1.71822 60.9559 1.93693C59.9984 2.22705 55.563 2.23658 54.405 1.95113C53.9589 1.84117 53.0494 1.75291 52.3839 1.75514C51.7184 1.75738 50.8852 1.64762 50.5322 1.51148C50.1792 1.37515 48.7353 1.22643 47.3234 1.18099C42.1827 1.01523 41.1156 0.960051 39.8555 0.794906C38.6154 0.6326 35.3578 0.630774 32.096 0.790442C31.2296 0.833047 30.4682 0.803224 30.4041 0.724303C30.1738 0.441689 28.7316 0.325842 28.6691 0.585125C28.6292 0.750879 28.5486 0.698942 28.4195 0.424037C28.3147 0.200867 28.1702 0.046881 28.0985 0.0817767C27.9478 0.155017 25.8789 0.385286 25.4449 0.376968C25.2845 0.373925 24.4181 0.31509 23.5196 0.246313C21.8977 0.121947 11.0098 -0.0691673 10.9493 0.0253756ZM2.55134 2.56464C2.68984 2.95032 2.8042 2.97832 4.11025 2.94687C5.01199 2.92536 5.54769 2.99191 5.5974 3.1317C5.65096 3.28223 5.89261 3.23273 6.37347 2.97243C6.86483 2.70646 7.31325 2.61759 7.88629 2.67217C8.33413 2.71477 9.22572 2.64681 9.86749 2.52082C11.1539 2.26864 11.183 2.26701 11.8511 2.41857C13.0554 2.69185 14.0377 2.76773 14.1635 2.59731C14.3795 2.30434 14.8195 2.1674 14.8917 2.37048C14.9809 2.62125 15.6434 2.60441 15.6434 2.35141C15.6434 2.23983 15.7253 2.14853 15.8253 2.14853C15.9253 2.14853 15.9748 2.23983 15.9351 2.35141C15.8954 2.463 15.9479 2.55429 16.0518 2.55429C16.1556 2.55429 16.2082 2.463 16.1685 2.35141C16.0602 2.04689 16.37 2.11952 16.6283 2.45935C16.9073 2.82616 17.2057 2.85476 17.0917 2.50357C17.0259 2.30069 17.0408 2.30069 17.1665 2.50357C17.3625 2.81987 17.8604 2.83711 17.8604 2.52772C17.8604 2.37272 18.0023 2.34431 18.298 2.44007C18.9892 2.66405 19.6112 2.71701 19.6681 2.55714C19.7211 2.40802 20.9952 2.44291 22.4543 2.63322C23.0235 2.70727 23.2997 2.66142 23.407 2.47477C23.5171 2.28325 23.7325 2.25281 24.1987 2.36298C24.7466 2.49221 28.5434 2.63342 29.2372 2.55044C29.9106 2.46969 31.3728 2.84482 31.6941 3.18059C31.8903 3.3855 32.2578 3.56343 32.5109 3.57601C33.1271 3.60664 34.2781 3.42729 34.416 3.27899C34.4769 3.21366 34.6558 3.24531 34.8136 3.34959C34.9713 3.45387 35.8553 3.60035 36.7779 3.67501C37.7005 3.74947 38.5078 3.86998 38.572 3.94261C38.6362 4.01525 38.8725 4.09356 39.0971 4.11648C39.3217 4.13941 39.9256 4.21468 40.439 4.28345C40.9524 4.35243 41.618 4.42588 41.9179 4.44698C42.2179 4.46787 42.5024 4.55288 42.55 4.63545C42.6693 4.843 44.4317 4.80182 45.6314 4.56343C46.177 4.45509 46.7808 4.38266 46.9733 4.40234C47.1659 4.42202 47.4547 4.4275 47.6151 4.41472C47.7755 4.40173 48.2613 4.38023 48.6944 4.36704C49.2872 4.34878 49.4821 4.27209 49.4821 4.05724C49.4821 3.69287 49.6713 3.68495 49.751 4.04608C49.7983 4.26033 50.0762 4.30131 51.0179 4.23314C53.1734 4.07733 53.8556 4.07347 53.9784 4.2165C54.0448 4.294 54.2993 4.27879 54.5441 4.18282C54.7888 4.08686 55.3384 4.04203 55.7653 4.08321C56.1921 4.1244 57.5129 4.21509 58.7002 4.28467C59.8874 4.35447 61.0689 4.4415 61.3256 4.47822C62.9264 4.70687 64.0477 4.83996 64.301 4.83103C65.6998 4.78173 66.1794 4.71498 66.2337 4.56262C66.2685 4.46483 66.4265 4.53239 66.5848 4.71275C66.8374 5.00044 67.0027 5.012 67.9272 4.80588C68.5071 4.67644 69.1885 4.42669 69.4415 4.25079L69.9015 3.93064L70.2698 4.61192C70.5264 5.08646 70.6547 5.2092 70.6927 5.01606C70.7227 4.8637 70.6766 4.66325 70.5905 4.57073C70.5043 4.47802 70.4671 4.34432 70.508 4.27331C70.6414 4.04122 73.315 4.17552 74.6277 4.48025C76.2425 4.85497 76.7735 4.85923 77.268 4.50115C77.4845 4.34452 77.8715 4.22198 78.1282 4.22908C78.5811 4.24166 78.5854 4.24815 78.2741 4.45164C77.9411 4.66934 77.8461 5.09579 78.098 5.24187C78.1777 5.28812 78.3127 5.20434 78.398 5.05583C78.6006 4.70383 78.77 4.71194 78.77 5.07388C78.77 5.31369 79.068 5.34777 80.5494 5.27798C81.5282 5.23193 82.4076 5.18749 82.5039 5.17938C82.6002 5.17126 83.1515 5.17086 83.7291 5.17877C84.3067 5.18669 85.9607 5.15219 87.4047 5.10208C97.6866 4.74562 104.308 4.66568 105.16 4.88784C105.615 5.00653 105.719 4.96981 105.82 4.65372C105.931 4.31166 106.138 4.27514 108.195 4.2374C111.183 4.18262 111.045 4.11851 111.141 5.5963C111.191 6.36238 111.155 7.39627 111.041 8.47682C110.943 9.40378 110.832 10.7976 110.795 11.5738C110.757 12.35 110.697 13.065 110.663 13.1624C110.628 13.2598 110.554 14.7244 110.499 16.4172C110.342 21.1831 110.249 23.0453 110.166 23.0453C110.124 23.0453 110.02 23.5949 109.934 24.2669C109.848 24.9388 109.732 25.5375 109.676 25.5976C109.515 25.7717 109.558 26.3294 109.765 26.7268C109.919 27.0214 109.931 27.2022 109.83 27.6556C109.76 27.9654 109.688 29.0405 109.668 30.0448C109.635 31.7723 109.647 31.8814 109.896 32.0709C110.077 32.2091 110.158 32.445 110.158 32.8317C110.158 33.5023 110.012 33.543 109.679 32.9652C109.457 32.5796 109.358 32.5534 108.658 32.695C108.232 32.7812 107.069 32.8754 106.074 32.9044C105.08 32.9332 104.108 33.0158 103.916 33.0878C103.723 33.1598 103.356 33.2531 103.099 33.2951C102.842 33.3371 102.396 33.4158 102.107 33.47C101.818 33.5242 101.268 33.6264 100.883 33.6972C100.499 33.768 100.162 33.8656 100.134 33.9141C100.106 33.9626 99.9501 33.8502 99.7867 33.6642C99.518 33.358 99.3458 33.3499 97.9688 33.5796C95.9279 33.9198 95.2925 34.0143 94.4641 34.101C94.0791 34.1411 93.4423 34.2278 93.0492 34.2933C92.6561 34.359 91.2909 34.4599 90.0154 34.5175C88.7399 34.5749 87.4459 34.72 87.1397 34.8399C86.6286 35.0401 85.7146 35.005 84.3709 34.734C83.8797 34.6348 81.9015 34.5272 76.6438 34.3132C74.6004 34.2302 74.1333 34.325 74.3896 34.7707C74.432 34.8443 75.0148 34.9399 75.6848 34.9829C76.3548 35.0261 76.903 35.1424 76.903 35.2412C76.903 35.3402 76.4436 35.4327 75.882 35.4469C75.3205 35.4611 73.8766 35.4992 72.6732 35.5317C70.5572 35.5887 70.4854 35.5773 70.4854 35.1878C70.4854 34.8774 70.5388 34.8147 70.7187 34.9139C70.8555 34.9894 70.9521 34.9504 70.9521 34.8198C70.9521 34.4674 70.6346 34.3473 70.2763 34.5646C70.0337 34.7114 69.8906 34.6914 69.7302 34.4873C69.5624 34.274 69.475 34.2651 69.3478 34.4487C69.2267 34.6234 69.1284 34.6275 68.9777 34.4639C68.8648 34.3414 68.7049 34.3138 68.6223 34.4027C68.5396 34.4913 68.2818 34.5209 68.0493 34.4682C67.8168 34.4154 67.469 34.4877 67.2765 34.6289C66.8591 34.9348 66.0513 35.0166 66.0513 34.7526C66.0513 34.6502 65.9727 34.6187 65.8764 34.6828C65.7803 34.7471 65.5833 34.7236 65.4388 34.6307C65.2861 34.5323 65.068 34.5473 64.9176 34.6664C64.7378 34.8088 64.4536 34.7938 63.9841 34.6171C63.5816 34.4655 62.1083 34.3323 60.3338 34.2868C58.6973 34.245 57.332 34.1957 57.2999 34.1775C57.2679 34.159 56.8215 34.1133 56.3081 34.0756C54.0429 33.9095 53.2021 33.807 53.0873 33.6836C53.0196 33.611 51.9839 33.5144 50.7857 33.4692C49.5873 33.4238 47.7405 33.2927 46.6816 33.1779C44.7381 32.9669 41.2499 32.7362 39.4763 32.7013C38.9468 32.6907 38.5137 32.6065 38.5137 32.514C38.5137 32.4213 38.3484 32.4087 38.1466 32.4858C37.5323 32.7204 36.8367 32.7307 36.5508 32.5094C36.3429 32.3483 36.2552 32.3675 36.1734 32.5923C36.0958 32.8054 36.0663 32.8141 36.065 32.6244C36.0637 32.4266 36.0069 32.416 35.8299 32.5808C35.6614 32.7376 35.5965 32.735 35.5965 32.5716C35.5965 32.4114 35.0937 32.3708 33.8754 32.4327C32.9288 32.4806 32.0362 32.4446 31.8918 32.3525C31.7411 32.2564 31.4967 32.2728 31.318 32.3909C31.1149 32.525 30.9822 32.5272 30.9359 32.3972C30.8555 32.1708 29.0059 32.2414 28.6712 32.4836C28.5314 32.5848 28.4198 32.5404 28.3549 32.3578C28.2859 32.1637 28.0064 32.0718 27.4589 32.0634C27.0212 32.0567 26.5978 31.9811 26.518 31.8952C26.438 31.8094 26.2034 31.8056 25.9964 31.8867C25.4495 32.1014 24.8566 32.1223 24.7881 31.9297C24.7554 31.8378 24.6692 31.8265 24.5965 31.9048C24.4374 32.0758 21.7642 32.0533 21.6025 31.8794C21.54 31.8123 21.4096 32.0111 21.3129 32.3211L21.1369 32.8851L21.1323 32.3673L21.1276 31.8496L19.6982 31.8218C17.9887 31.7887 16.58 31.6394 16.4892 31.4816C16.453 31.4185 16.3528 31.4688 16.2667 31.593C16.1486 31.7634 16.1097 31.7504 16.1084 31.5404C16.107 31.3203 16.0806 31.3258 15.9828 31.5664C15.8896 31.7954 15.8443 31.808 15.7999 31.6171C15.7299 31.3176 14.9674 31.2803 14.5503 31.5562C14.39 31.6621 14.2421 31.6743 14.2218 31.583C14.2014 31.4917 14.0667 31.3533 13.9223 31.2752C13.727 31.1695 13.6598 31.2148 13.6598 31.4513C13.6598 31.6262 13.6378 31.7693 13.611 31.7693C13.5841 31.7693 13.4659 31.8234 13.3484 31.8898C13.1726 31.989 13.1656 31.9725 13.3088 31.7968C13.5589 31.4899 13.3147 31.1318 12.8274 31.0914C12.5195 31.0661 12.4113 31.1598 12.3188 31.5325L12.2012 32.0056L9.37041 31.9192C7.81348 31.8717 6.50509 31.7729 6.46297 31.6997C6.24874 31.3272 6.83356 31.1673 8.49516 31.144C9.08815 31.1359 9.6053 31.0387 9.6445 30.9285C9.74987 30.6321 9.67858 30.5712 8.95408 30.3383C8.18419 30.0908 6.96798 30.3266 5.60849 30.9867C5.12716 31.2205 4.35751 31.4534 3.898 31.5043C2.90384 31.6149 2.90349 31.6143 2.94002 29.2016C2.97724 26.7349 2.94223 23.8033 2.86942 23.2989C2.83138 23.0354 2.71411 22.8425 2.59194 22.8425C2.30572 22.8425 2.23862 22.6915 2.31097 22.2107C2.34691 21.9721 2.4378 21.8489 2.53162 21.9116C2.65239 21.9922 2.69136 21.7925 2.69136 21.0926C2.69136 20.3377 2.6483 20.1474 2.45799 20.061C2.32964 20.0025 2.22462 19.8644 2.22462 19.7538C2.22462 19.6434 2.30945 19.6095 2.41307 19.6787C2.57829 19.7889 2.58949 19.6846 2.5042 18.8382C2.38646 17.6696 2.36966 12.3492 2.47736 10.3257C2.53069 9.32161 2.51435 8.84241 2.42474 8.79047C2.33407 8.73793 2.36721 8.19724 2.53349 7.01586C2.79019 5.19054 2.72672 4.09376 2.35146 3.87079C2.24959 3.81033 2.07036 3.63383 1.9531 3.47862C1.75123 3.21183 1.75041 3.16842 1.93734 2.67257C2.17561 2.04019 2.35181 2.00915 2.55134 2.56464ZM44.3192 3.19175C44.5923 3.21224 44.7858 3.28061 44.7493 3.34411C44.6515 3.51413 43.0352 3.35507 42.831 3.15543C42.7252 3.05196 42.8868 3.01808 43.2394 3.06961C43.5603 3.11648 44.0462 3.17146 44.3192 3.19175ZM0.977491 4.38023C1.04412 4.88784 0.786128 5.7795 0.668509 5.4484C0.575978 5.18831 0.726852 3.51839 0.825684 3.70869C0.872592 3.79897 0.940852 4.10127 0.977491 4.38023ZM79.12 4.59508C79.12 4.70018 79.0675 4.78599 79.0034 4.78599C78.9392 4.78599 78.8867 4.64357 78.8867 4.4697C78.8867 4.29583 78.9392 4.20981 79.0034 4.27879C79.0675 4.34777 79.12 4.48999 79.12 4.59508ZM80.2286 4.38023C80.1889 4.49181 80.0051 4.58311 79.8202 4.58311C79.6352 4.58311 79.4514 4.49181 79.4118 4.38023C79.3681 4.25749 79.5295 4.17735 79.8202 4.17735C80.1108 4.17735 80.2722 4.25749 80.2286 4.38023ZM70.8354 4.79817C70.8354 5.08565 71.3082 5.43927 71.5473 5.33053C71.669 5.27514 71.7981 5.31267 71.834 5.41371C71.9248 5.66914 72.322 5.64418 72.417 5.37699C72.46 5.25566 72.45 5.08443 72.3947 4.99638C72.2502 4.76692 70.8354 4.58697 70.8354 4.79817ZM77.2823 4.92923C77.1379 4.97751 77.0197 5.09397 77.0197 5.1879C77.0197 5.28184 77.1117 5.32809 77.2239 5.29076C77.3362 5.25343 77.4938 5.2159 77.574 5.20738C77.6543 5.19865 77.7198 5.10046 77.7198 4.98887C77.7198 4.87729 77.6805 4.79837 77.6323 4.81359C77.5841 4.8288 77.4266 4.88074 77.2823 4.92923ZM0.250193 13.8311C0.255794 14.0674 0.283449 14.1155 0.320671 13.9538C0.354393 13.8073 0.350193 13.6322 0.311454 13.5649C0.272714 13.4975 0.245175 13.6172 0.250193 13.8311ZM111.557 18.3283C111.555 18.7343 111.527 18.8084 111.451 18.6004C111.394 18.4432 111.374 18.192 111.407 18.0425C111.501 17.6134 111.559 17.7225 111.557 18.3283ZM111.402 20.0528C111.37 20.1924 111.344 20.0782 111.344 19.7992C111.344 19.5203 111.37 19.4063 111.402 19.5456C111.435 19.6852 111.435 19.9135 111.402 20.0528ZM9.92583 30.9648C9.92583 31.3351 9.98546 31.3698 10.501 31.299C10.8172 31.2558 11.144 31.2933 11.2271 31.3826C11.3135 31.4753 11.414 31.4442 11.4618 31.3101C11.5213 31.1428 11.6109 31.1787 11.7741 31.4355C12.0181 31.8194 12.194 31.6327 12.028 31.1659C11.9663 30.9922 11.6789 30.8687 11.2689 30.8396C10.906 30.8141 10.5779 30.7388 10.5397 30.6725C10.5016 30.6061 10.3479 30.552 10.1981 30.552C10.002 30.552 9.92583 30.6676 9.92583 30.9648ZM12.8633 31.8151C12.7991 31.9267 12.6839 31.9506 12.6073 31.8683C12.5014 31.7544 12.5047 31.6792 12.6207 31.5544C12.8197 31.3406 13.0153 31.5508 12.8633 31.8151ZM38.8637 34.2253C38.2447 34.4373 34.3338 34.6025 34.0796 34.4272C33.7429 34.1951 34.8466 34.0586 37.1134 34.0519C38.7446 34.0472 39.2401 34.0963 38.8637 34.2253ZM33.7296 34.4031C33.7296 34.5126 33.4538 34.5909 33.117 34.5771C32.688 34.5595 32.5744 34.5039 32.7378 34.3921C33.0742 34.1618 33.7296 34.1691 33.7296 34.4031ZM71.6273 34.3704C71.2394 34.638 71.6026 34.9397 72.3231 34.9486C72.9739 34.9565 73.0524 34.9141 73.0524 34.5558C73.0524 34.2617 73.0133 34.2083 72.9066 34.3568C72.8235 34.4722 72.6602 34.4891 72.5273 34.396C72.2423 34.1961 71.8941 34.1862 71.6273 34.3704ZM73.2469 34.542C73.0604 34.8664 73.2051 35.0038 73.6942 34.9669C74.3622 34.9164 74.433 34.4067 73.772 34.4067C73.5259 34.4067 73.2896 34.4676 73.2469 34.542ZM68.2683 35.0131C68.2683 35.1235 68.1371 35.1947 67.9766 35.1718C67.8162 35.1487 67.6849 35.0584 67.6849 34.9711C67.6849 34.8839 67.8162 34.8125 67.9766 34.8125C68.1371 34.8125 68.2683 34.9028 68.2683 35.0131ZM78.0115 35.2182C78.0512 35.3298 77.9725 35.4211 77.8365 35.4211C77.7006 35.4211 77.6218 35.3298 77.6615 35.2182C77.7012 35.1067 77.7799 35.0154 77.8365 35.0154C77.8931 35.0154 77.9719 35.1067 78.0115 35.2182ZM78.6533 35.2182C78.4271 35.4725 78.3033 35.4725 78.3033 35.2182C78.3033 35.1067 78.4215 35.0168 78.5658 35.0184C78.778 35.021 78.7948 35.0592 78.6533 35.2182ZM2.10794 36.1929C2.10794 36.2905 2.23921 36.4745 2.39965 36.6015C2.64644 36.7971 2.69136 36.7812 2.69136 36.4988C2.69136 36.3152 2.65822 36.2227 2.61773 36.2931C2.57713 36.3635 2.44586 36.33 2.32602 36.2184C2.20607 36.1069 2.10794 36.0953 2.10794 36.1929ZM57.8605 38.0401C57.8989 38.241 57.8555 38.2862 57.7148 38.1923C57.6045 38.1188 57.4104 38.0586 57.2835 38.0586C57.1567 38.0586 57.0805 37.9809 57.1142 37.8859C57.2134 37.6068 57.8009 37.7283 57.8605 38.0401Z" fill="#0038A8"/>
</svg>
