<svg width="215" height="305" viewBox="0 0 215 305" fill="none" xmlns="http://www.w3.org/2000/svg">
<path fill-rule="evenodd" clip-rule="evenodd" d="M143.116 0.0676353C142.996 0.187537 138.21 0.516114 132.48 0.798C126.752 1.08046 121.581 1.58486 120.991 1.92035C119.724 2.63976 113.721 4.3011 111.25 4.61585C110.296 4.73748 108.736 4.93174 107.782 5.04819C106.829 5.16463 104.608 5.56469 102.848 5.93765C101.088 6.31062 96.5366 7.10151 92.7345 7.69526C88.9323 8.28843 83.2207 9.44537 80.0422 10.2651C76.8636 11.0854 73.2603 11.7604 72.0345 11.765C70.8093 11.7696 68.3387 12.1449 66.5442 12.5997C64.7504 13.0545 62.0688 13.5526 60.5859 13.7065C59.1023 13.8604 57.3963 14.2495 56.7941 14.5712C56.1919 14.8928 53.8947 15.2848 51.6887 15.4428C45.7425 15.8688 38.1856 16.9387 37.0858 17.5105C36.0039 18.0726 30.9674 19.1384 27.4513 19.5488C23.3099 20.0325 18.8403 20.9191 15.9454 21.8316C14.3851 22.3233 12.4346 22.7297 11.611 22.7343C8.19436 22.7539 4.04545 25.0609 4.04545 26.9407C4.04545 27.8999 1.90021 28.6482 1.41129 27.8596C0.805046 26.8813 0 27.3338 0 28.6528C0 30.7828 1.57657 36.2199 2.26025 36.4476C3.22711 36.7686 3.01097 37.7163 1.72972 38.7741C0.714887 39.6111 0.645536 40.0002 1.17665 41.8841C1.60315 43.3984 1.60026 44.379 1.16682 45.1872C0.382005 46.6496 0.969176 49.1595 2.48622 50.8254C3.13465 51.5374 3.49007 52.2942 3.2774 52.5069C3.06414 52.7197 2.88961 52.5905 2.88961 52.221C2.88961 51.8509 2.60874 51.5483 2.26603 51.5483C1.87131 51.5483 1.78405 52.1934 2.02793 53.3013C2.26661 54.385 2.1412 55.3817 1.69966 55.9126C1.13157 56.5951 1.14082 57.0909 1.74474 58.3389C2.72952 60.3744 2.90752 61.348 2.29377 61.348C1.58524 61.348 1.72336 67.2578 2.4527 68.1409C2.88672 68.6666 2.85378 69.2731 2.34 70.2306C1.75515 71.3206 1.76266 71.8429 2.38046 72.9491C2.84222 73.7769 3.16528 76.3704 3.19591 79.5063C3.22423 82.3597 3.70853 87.1587 4.27258 90.1706C4.89962 93.5169 5.19379 97.1042 5.0285 99.3939C4.84414 101.952 5.13079 104.759 5.93179 108.242C6.79174 111.982 6.92813 113.454 6.4421 113.753C6.05662 113.99 5.79309 115.596 5.81274 117.586C5.83181 119.47 5.83875 121.771 5.82835 122.699C5.81794 123.628 6.03292 124.666 6.3057 125.005C7.87592 126.96 7.63781 134.214 6.0231 133.596C5.01752 133.211 4.84183 136.574 5.83643 137.187C6.41955 137.546 6.1225 146.219 5.49141 147.237C5.36716 147.438 5.66768 148.973 6.16007 150.647C6.81254 152.867 6.8819 153.864 6.41725 154.327C5.63532 155.107 5.57406 157.997 6.32882 158.463C6.94142 158.841 6.76689 163.087 6.07223 164.716C5.82661 165.292 5.89827 166.33 6.23231 167.022C7.1356 168.896 7.46617 170.835 6.93795 171.16C5.84973 171.831 5.38681 183.53 6.13868 191.338C6.29183 192.923 6.47908 199.538 6.55594 206.038C6.63281 212.537 6.89923 218.288 7.14889 218.819C7.39797 219.348 7.33498 220.28 7.00846 220.889C6.30166 222.206 6.27449 223.266 6.58946 237.454C6.72296 243.478 6.57386 249.782 6.25889 251.462C5.86822 253.541 5.87689 254.747 6.2849 255.237C6.61432 255.633 6.88363 258.409 6.88305 261.405C6.88247 264.402 7.0258 271.965 7.20206 278.212L7.52165 289.571L5.78384 292.983C4.82738 294.86 4.04545 296.658 4.04545 296.978C4.04545 297.299 3.67616 298.272 3.22422 299.14C2.77287 300.009 2.52668 301.041 2.67809 301.434C3.00982 302.297 5.42784 303.458 6.89172 303.458C7.47311 303.458 8.27237 303.846 8.66652 304.32C9.27391 305.05 10.9516 305.132 19.5736 304.85C25.1777 304.667 30.5761 304.31 31.5701 304.054C32.5647 303.799 36.416 303.548 40.1292 303.497C43.8423 303.445 47.5283 303.158 48.3206 302.857C50.2382 302.13 54.6229 301.563 57.6043 301.657C58.9313 301.699 60.7517 301.442 61.6498 301.087C62.5479 300.731 63.9956 300.346 64.8671 300.231C65.7386 300.117 68.0792 299.794 70.0684 299.513C72.0576 299.233 74.3352 298.996 75.1298 298.985C76.5429 298.966 80.9189 297.998 82.6428 297.323C83.1196 297.137 84.55 296.88 85.8214 296.752C87.0928 296.624 88.2198 296.265 88.3255 295.953C88.4319 295.643 89.6022 295.384 90.9262 295.379C93.9678 295.368 98.1652 294.136 98.8662 293.049C99.332 292.327 99.4731 292.326 99.9366 293.045C100.377 293.728 100.628 293.741 101.374 293.125C101.871 292.713 102.663 292.524 103.133 292.704C103.604 292.884 104.152 292.768 104.352 292.445C105.059 291.304 107.656 290.766 113.916 290.464C117.398 290.295 121.473 289.893 122.973 289.57C128.592 288.359 136.216 287.212 139.568 287.073C141.475 286.994 145.376 286.344 148.237 285.628C152.751 284.498 158.401 283.443 161.24 283.199C161.717 283.158 162.421 282.879 162.804 282.578C163.188 282.276 163.756 282.188 164.069 282.38C164.38 282.572 166.147 282.219 167.994 281.596C172.246 280.161 181.766 278.441 182.947 278.893C183.44 279.081 184.758 278.855 185.874 278.389C186.991 277.924 190.21 277.408 193.028 277.242L198.151 276.94L199.778 279.3C202.536 283.298 203.647 284.335 205.596 284.726C207.87 285.183 208.047 284.335 206.318 281.265C204.721 278.428 204.825 277.048 206.67 276.586C208.011 276.25 208.143 275.994 207.862 274.269L207.547 272.33H210.689C213.517 272.33 213.831 272.206 213.831 271.092C213.831 270.411 212.962 268.79 211.901 267.489C209.808 264.924 208.779 261.616 209.953 261.225C210.743 260.963 210.999 257.016 210.987 245.248C210.984 242.171 211.263 239.93 211.743 239.196C212.187 238.517 212.661 235.308 212.88 231.505C213.087 227.916 213.483 224.543 213.76 224.011C214.037 223.479 214.154 222.135 214.019 221.025C213.884 219.916 213.8 218.23 213.833 217.278C214.088 209.895 214.311 207.512 214.76 207.362C215.062 207.261 215.081 204.485 214.805 200.705C214.545 197.138 214.395 192.015 214.47 189.32C214.735 179.849 214.711 179.343 213.976 179.094C213.579 178.959 213.253 179.259 213.253 179.761C213.253 180.835 212.041 180.963 211.067 179.992C210.104 179.031 209.409 179.941 210.173 181.161C210.642 181.908 210.619 182.428 210.086 183.155C209.591 183.83 209.505 184.906 209.812 186.581C210.058 187.924 210.097 189.284 209.897 189.604C209.698 189.923 209.346 193.039 209.116 196.526C208.526 205.46 207.972 210.754 207.491 212.057C207.083 213.162 206.704 203.452 206.739 192.779C206.749 189.767 206.76 186.071 206.764 184.565C206.768 183.058 206.787 180.854 206.806 179.665C206.906 173.611 206.865 172.153 206.548 170.298C206.359 169.188 206.161 164.723 206.109 160.376C206.049 155.337 205.775 152.232 205.355 151.812C204.859 151.318 204.909 150.642 205.551 149.108C206.059 147.894 206.494 144.576 206.62 140.938C206.822 135.12 206.552 133.426 205.386 133.211C205.104 133.159 204.847 131.301 204.816 129.081C204.784 126.862 204.555 124.576 204.307 124.003C204.059 123.428 203.983 121.19 204.138 119.028C204.293 116.867 204.168 114.649 203.86 114.101C203.48 113.423 203.534 112.667 204.029 111.744C204.601 110.68 204.607 110.204 204.06 109.545C203.535 108.916 203.515 108.132 203.978 106.417C204.317 105.158 204.419 103.669 204.203 103.108C203.934 102.409 204.023 102.218 204.486 102.504C204.946 102.787 205.162 102.357 205.162 101.157C205.162 100.188 204.907 99.3939 204.596 99.3939C203.861 99.3939 204.256 95.3183 205.154 93.646C205.684 92.6574 205.694 91.5166 205.196 88.8113C204.756 86.4225 204.728 84.6546 205.108 83.376C205.514 82.0109 205.449 80.7439 204.877 78.8462C204.421 77.3353 204.27 75.685 204.522 74.9771C205.1 73.3561 204.952 68.7491 204.288 67.6774C204.001 67.2134 203.723 64.6269 203.669 61.9291C203.617 59.2318 203.38 55.4682 203.143 53.5659C202.533 48.6632 202.445 40.511 202.946 35.1459C203.19 32.5306 203.148 30.2887 202.848 29.9279C202.287 29.254 202.677 26.909 203.532 25.8132C205.004 23.9253 204.503 16.3847 202.905 16.3847C202.602 16.3847 201.764 17.563 201.043 19.003C198.834 23.4145 198.356 23.3102 198.387 18.423C198.409 15.0237 198.19 13.8402 197.37 12.9369C196.757 12.2613 196.207 10.5308 196.041 8.75247C195.762 5.77279 195.777 5.73762 196.893 6.72912C198.288 7.96734 199.024 7.99905 199.97 6.86228C200.983 5.64424 199.444 4.04746 195.352 2.07311L192.159 0.532256L174.243 0.504008C164.39 0.48902 153.404 0.335686 149.831 0.163327C146.258 -0.00903265 143.236 -0.0516904 143.116 0.0676353ZM190.136 15.9374C189.83 32.5231 190.015 44.3438 190.634 47.8014C190.975 49.7037 191.304 53.8541 191.366 57.0246C191.427 60.1951 191.668 63.0485 191.901 63.3656C192.134 63.6826 192.468 65.1094 192.644 66.5361C192.821 67.9628 193.373 71.4647 193.872 74.3182C194.753 79.3552 195.223 83.3587 195.633 89.3059C195.742 90.8912 195.987 93.4852 196.176 95.0705C196.366 96.6557 196.737 102.363 197.002 107.752C197.267 113.142 197.571 117.812 197.679 118.129C197.786 118.446 197.676 120.424 197.434 122.525C197.168 124.833 197.247 127.732 197.632 129.85C197.982 131.777 198.383 136.543 198.521 140.441C198.66 144.339 198.911 151.42 199.078 156.178C199.246 160.937 199.624 165.667 199.918 166.691C200.247 167.833 200.247 168.68 199.918 168.883C199.162 169.349 199.252 174.568 200.046 176.306C200.552 177.414 200.543 177.957 200.007 178.6C199.258 179.501 199.582 195.671 200.5 203.155C200.753 205.216 200.715 209.496 200.416 212.667C199.816 219.022 199.816 219.023 199.942 224.772C200.146 234.153 199.899 242.748 199.368 244.715C199.055 245.874 198.683 250.117 198.542 254.142C198.401 258.167 198.119 262.567 197.916 263.919L197.546 266.376L193.408 267.093C191.131 267.487 188.042 267.93 186.542 268.077C185.041 268.223 182.441 268.94 180.762 269.669C179.084 270.399 175.24 271.441 172.221 271.986C169.201 272.53 165.5 273.242 163.996 273.568C161.572 274.093 161.088 274.023 159.728 272.957C158.885 272.294 157.632 271.753 156.943 271.753C156.255 271.753 155.445 271.506 155.142 271.204C154.721 270.785 146.041 270.051 139.568 269.887C139.25 269.879 135.999 270.074 132.344 270.32C128.689 270.565 125.048 270.735 124.253 270.696C122.208 270.596 115.588 271.621 109.673 272.952C104.437 274.13 95.7091 274.429 84.4142 273.815C81.4147 273.652 78.6841 273.747 78.346 274.025C78.0073 274.303 76.4764 274.668 74.9437 274.835C73.4111 275.003 71.786 275.447 71.3317 275.822C70.3146 276.665 70.2423 279.618 71.2289 280.026C71.7236 280.232 71.5155 280.705 70.5706 281.529C69.0755 282.832 67.1412 282.649 66.2489 281.12C65.8363 280.413 65.5282 280.537 64.4972 281.826C62.8056 283.942 59.9906 284.42 49.1234 284.433C40.5302 284.444 40.1205 284.391 39.0583 283.143C38.27 282.216 38.0567 282.132 38.318 282.85C38.7884 284.145 36.8223 284.217 34.4649 282.991C32.307 281.868 30.0519 281.87 30.0519 282.994C30.0519 283.532 30.5975 283.859 31.4967 283.859C32.2914 283.859 32.9415 284.09 32.9415 284.373C32.9415 285.248 31.1049 285.645 30.2675 284.951C29.6693 284.456 29.2556 284.475 28.5875 285.028C27.9414 285.563 27.3536 285.601 26.4203 285.167C25.7158 284.84 23.9693 284.126 22.5389 283.58C21.1086 283.034 19.4869 282.355 18.935 282.07C18.3831 281.786 17.5503 281.553 17.0851 281.553C16.6199 281.553 16.0119 281.148 15.7339 280.652C15.4559 280.157 14.7278 279.679 14.1157 279.59C13.1633 279.452 12.9784 278.867 12.8304 275.514C12.6825 272.16 12.8362 271.41 13.9007 270.28C14.9104 269.208 15.1051 268.41 14.9404 266.033C14.7682 263.552 14.8913 263.106 15.7484 263.106C17.1914 263.106 16.9996 261.756 15.4594 261.075C14.6341 260.71 14.2151 260.081 14.3128 259.353C14.7422 256.158 14.778 249.763 14.3689 249.511C14.0059 249.287 14.0955 245.161 14.5342 241.868C14.5625 241.66 14.5544 240.748 14.5162 239.843C14.466 238.627 14.2198 238.283 13.5783 238.529C12.8264 238.816 12.7206 237.749 12.7969 230.664C12.8455 226.155 12.7357 219.098 12.553 214.981C12.3693 210.853 12.4531 207.216 12.7386 206.873C13.7626 205.642 14.047 199.652 13.2749 195.572C12.6657 192.35 12.6571 191.441 13.2327 191.087C13.7135 190.79 13.9343 189.221 13.8944 186.378C13.8615 184.033 13.8337 180.818 13.8331 179.233C13.8326 177.647 13.7019 174.88 13.5424 173.082C13.3829 171.284 13.4829 169.672 13.7649 169.497C14.047 169.324 14.1626 166.644 14.0221 163.543C13.8811 160.441 13.7973 155.086 13.8354 151.642C13.8782 147.721 13.6592 145.086 13.2483 144.593C12.7674 144.015 12.7611 143.324 13.2246 141.997C13.5719 141.003 13.7095 139.952 13.5297 139.663C13.35 139.373 13.0813 136.354 12.9327 132.956C12.7842 129.556 12.6484 126.516 12.6305 126.199C12.612 125.882 12.6305 124.844 12.6704 123.893C12.7102 122.942 12.597 120.348 12.419 118.129C12.241 115.909 12.0254 111.227 11.9399 107.722C11.8249 103.01 11.5434 101.009 10.8591 100.034C10.1575 99.0347 10.0605 98.2779 10.4575 96.8973C10.7453 95.8971 10.9805 93.7146 10.9805 92.0481C10.9805 89.6126 10.7927 89.0177 10.0241 89.0177C9.13406 89.0177 9.13406 88.9445 10.0241 87.9634C11.2423 86.6208 11.2261 86.3804 9.82467 84.9826C9.18896 84.3485 8.66883 83.2676 8.66883 82.5805C8.66883 81.8939 8.84047 81.5031 9.05026 81.7123C9.62009 82.2801 11.1111 79.8954 10.6511 79.1523C10.4326 78.8007 10.5442 78.3343 10.8979 78.1158C11.2516 77.8979 11.7104 76.8742 11.9179 75.8412C12.2323 74.2709 12.104 73.9135 11.1308 73.6599C9.77323 73.3059 8.35328 70.9707 8.92947 70.0403C9.14793 69.6881 9.56865 69.5486 9.86455 69.7314C10.1604 69.9135 10.4026 69.9325 10.4026 69.7734C10.4026 69.122 7.8031 64.9912 6.49815 63.5685C5.30186 62.2646 5.19725 61.8559 5.78096 60.7681C6.28086 59.8371 6.63628 59.6665 7.10439 60.1334C8.06085 61.0874 8.66883 60.9064 8.66883 59.6665C8.66883 59.0589 8.99131 58.4548 9.38603 58.3234C9.89055 58.1556 9.77786 57.7607 9.00692 56.9912C7.93082 55.9178 7.93602 55.8919 9.30107 55.5685C10.6124 55.2572 10.6881 55.0099 10.632 51.2318C10.4881 41.5025 9.61777 37.3019 7.86552 37.8847C6.79 38.2421 5.13136 35.5967 5.50355 34.1181C5.69079 33.3756 5.56134 32.0296 5.2169 31.1257C4.87303 30.2224 4.70313 29.3716 4.8401 29.2344C4.97764 29.0978 6.13348 29.4892 7.40953 30.1037C9.31321 31.0214 10.7482 31.1932 15.4114 31.0635C18.5368 30.9764 21.3542 31.1044 21.6721 31.3483C22.3523 31.8705 24.2028 31.9737 25.4286 31.5587C25.9053 31.3967 28.1159 31.1742 30.3409 31.0641C39.9101 30.5896 44.4792 30.0801 45.6512 29.3578C45.9639 29.1652 47.7109 28.6199 49.5331 28.1466C51.3553 27.6728 53.2647 26.9078 53.7768 26.4455C54.2888 25.9832 54.8748 25.7728 55.08 25.9769C55.2852 26.1815 55.7903 26.0691 56.2035 25.7273C56.6161 25.3854 58.3782 24.9254 60.1183 24.7058C61.8584 24.4856 63.7326 23.9143 64.2828 23.4364C65.1185 22.7101 65.4358 22.6922 66.205 23.3298C66.9655 23.9593 67.2088 23.9604 67.596 23.3356C67.8544 22.9188 68.3537 22.7556 68.7057 22.9724C69.0669 23.1955 69.613 22.7827 69.9586 22.0253C70.4793 20.8856 70.9151 20.7167 72.854 20.9012C74.1098 21.0205 75.2541 21.307 75.3968 21.5376C75.817 22.2155 79.2469 21.4984 79.006 20.783C78.7482 20.0204 82.7099 18.7118 85.3151 18.6992C86.3086 18.6945 88.2053 18.3089 89.5311 17.8426C90.8562 17.3756 94.7249 16.8222 98.1277 16.6118C101.53 16.4014 104.763 15.9996 105.309 15.7189C105.857 15.4387 108.457 15.0796 111.089 14.9211C113.721 14.7631 117.304 14.3879 119.052 14.0881C125.199 13.0332 126.328 12.881 132.344 12.2982C135.682 11.9748 139.436 11.6065 140.686 11.4791C141.938 11.3517 143.628 10.9972 144.443 10.6911C145.783 10.1878 148.379 9.84542 155.991 9.16866C157.395 9.04415 158.792 9.09488 159.096 9.28223C160.265 10.0028 166.441 10.0847 167.726 9.39637C168.45 9.00841 169.952 8.62911 171.065 8.55359C182.125 7.8019 189.165 7.17011 189.43 6.90552C190.178 6.15901 190.29 7.58976 190.136 15.9374ZM204.953 11.4849C205.136 11.9604 205.388 12.3495 205.513 12.3495C205.638 12.3495 205.74 11.9604 205.74 11.4849C205.74 11.0093 205.488 10.6202 205.18 10.6202C204.873 10.6202 204.77 11.0093 204.953 11.4849ZM204.397 15.4641C203.975 16.5611 205.417 18.5268 205.978 17.62C206.464 16.8366 205.88 14.6553 205.185 14.6553C204.923 14.6553 204.568 15.0191 204.397 15.4641ZM14.448 36.5605C14.448 36.8776 14.7237 37.137 15.0601 37.137C15.3964 37.137 15.5114 36.8776 15.3149 36.5605C15.1184 36.2435 14.8433 35.9841 14.7029 35.9841C14.5625 35.9841 14.448 36.2435 14.448 36.5605ZM8.56076 62.8946C8.97744 63.0612 9.47619 63.0405 9.66806 62.8491C9.85993 62.6577 9.51895 62.5217 8.90982 62.5464C8.23655 62.5741 8.09958 62.7107 8.56076 62.8946ZM9.82467 66.5361C9.82467 66.8531 10.1003 67.1125 10.4367 67.1125C10.773 67.1125 10.888 66.8531 10.6916 66.5361C10.4951 66.219 10.22 65.9596 10.0795 65.9596C9.9391 65.9596 9.82467 66.219 9.82467 66.5361ZM10.4026 71.7241C10.4026 72.0412 10.6627 72.3006 10.9805 72.3006C11.2984 72.3006 11.5584 72.0412 11.5584 71.7241C11.5584 71.4071 11.2984 71.1477 10.9805 71.1477C10.6627 71.1477 10.4026 71.4071 10.4026 71.7241ZM212.675 177.215C212.675 177.532 212.951 177.791 213.287 177.791C213.624 177.791 213.739 177.532 213.542 177.215C213.346 176.898 213.071 176.639 212.93 176.639C212.79 176.639 212.675 176.898 212.675 177.215ZM207.534 216.008C207.069 216.472 206.901 216.184 206.913 214.944C206.929 213.453 207.008 213.375 207.551 214.307C207.996 215.071 207.991 215.552 207.534 216.008ZM148.526 276.286C148.526 277.024 138.458 278.668 132.344 278.928C126.378 279.183 120.786 278.788 120.786 278.114C120.786 277.881 123.192 277.485 126.131 277.233C129.071 276.982 133.168 276.605 135.234 276.395C140.974 275.814 148.526 275.752 148.526 276.286ZM68.3393 277.899C67.4787 278.246 67.3707 280.757 68.1948 281.265C68.5126 281.461 68.7947 281.281 68.8207 280.866C68.8473 280.451 68.9339 279.528 69.0131 278.815C69.0923 278.102 69.1356 277.538 69.1096 277.563C69.083 277.588 68.7369 277.74 68.3393 277.899ZM80.3311 278.532C80.3311 279.144 77.9761 280.549 77.5918 280.165C77.1196 279.694 78.6211 278.094 79.5348 278.094C79.9728 278.094 80.3311 278.291 80.3311 278.532ZM75.9667 279.027C76.8029 279.347 76.7931 279.463 75.869 280.161C74.5404 281.167 72.8181 281.193 72.8181 280.208C72.8181 278.745 74.0364 278.288 75.9667 279.027ZM107.204 282.129C107.425 282.484 106.451 282.706 104.672 282.706C103.083 282.706 101.622 282.446 101.425 282.129C101.205 281.774 102.178 281.553 103.958 281.553C105.547 281.553 107.008 281.812 107.204 282.129ZM88.2487 285.236C88.7468 286.098 94.5272 289.047 95.72 289.047C96.9608 289.047 97.2717 290.266 96.2829 291.252C95.4796 292.054 95.156 292.081 94.118 291.434C92.6952 290.548 86.9229 290.93 80.909 292.308C78.843 292.782 75.2021 293.255 72.8181 293.359C65.9548 293.658 60.4524 294.314 59.6982 294.923C58.8348 295.619 56.4959 294.943 56.7843 294.08C56.908 293.711 58.8723 293.383 61.4967 293.293C64.3857 293.195 66.4928 292.816 67.3822 292.235C68.2375 291.676 69.3217 291.468 70.2152 291.692C71.4404 291.998 71.6623 291.854 71.6623 290.749C71.6623 289.479 71.6929 289.472 72.8239 290.493C73.9509 291.51 74.0266 291.504 75.3177 290.294C76.0499 289.608 76.9399 289.047 77.2953 289.047C77.6507 289.047 78.1079 288.524 78.3113 287.885C78.6789 286.729 78.6887 286.729 80.1208 287.852C81.4974 288.933 83.2207 288.921 83.2207 287.832C83.2207 286.724 83.438 286.419 84.8927 285.486C86.7755 284.278 87.658 284.212 88.2487 285.236ZM18.1953 288.127C19.7898 288.89 22.1344 289.838 23.4058 290.234C24.6773 290.631 26.3717 291.437 27.171 292.026C29.0793 293.434 34.1754 294.225 39.0762 293.875C41.6422 293.692 43.484 293.847 44.3711 294.32C45.2923 294.812 45.8587 294.853 46.1268 294.446C46.6181 293.703 54.8841 293.741 54.9136 294.487C54.9378 295.119 53.908 295.378 50.1203 295.696C48.6026 295.824 46.3441 296.201 45.1016 296.534C43.8591 296.868 40.1598 297.139 36.8807 297.137C33.6015 297.134 27.798 297.336 23.9838 297.585C14.6723 298.193 14.459 298.14 14.4035 295.176C14.3793 293.866 14.2614 292.275 14.1412 291.641C13.5245 288.389 13.673 286.741 14.5833 286.741C14.9757 286.741 16.6008 287.365 18.1953 288.127Z" fill="#0038A8"/>
</svg>
