<svg width="24" height="28" viewBox="0 0 24 28" fill="none" xmlns="http://www.w3.org/2000/svg">
<path fill-rule="evenodd" clip-rule="evenodd" d="M17.4761 15.6923C17.9818 15.7316 18.1576 15.684 18.1576 15.5079C18.1576 15.2673 18.4797 15.2813 18.6198 15.528C18.715 15.6958 18.7857 15.7049 19.0777 15.5872C19.4677 15.4301 20.8379 15.5925 20.9095 15.8043C20.932 15.8708 21 15.8951 21.0606 15.8581C21.1213 15.8212 21.1709 15.8705 21.1709 15.9678C21.1709 16.3276 21.4971 16.5009 21.9745 16.3946C22.4789 16.2826 22.6364 16.3308 22.5437 16.569C22.4751 16.7453 23.1246 17.4686 23.3515 17.4686C23.4408 17.4686 23.4664 17.5909 23.4225 17.8074C23.3375 18.2262 23.4468 18.6798 23.6088 18.581C23.6864 18.5337 23.7012 18.7133 23.6506 19.0874C23.6073 19.4062 23.6212 20.0134 23.6812 20.4369C23.755 20.9571 23.7486 21.2726 23.6617 21.4099C23.5683 21.5574 23.5748 21.6901 23.6857 21.8944C23.7697 22.0491 23.8284 22.2262 23.8162 22.2878C23.8041 22.3496 23.8014 22.4804 23.8103 22.5784C23.8233 22.7231 23.8457 22.7266 23.9291 22.5968C23.9878 22.5055 24.0147 23.0618 23.9919 23.8942C23.97 24.6957 23.9094 25.3826 23.8573 25.4206C23.8051 25.4586 23.6684 25.6904 23.5534 25.9354C23.4276 26.2038 23.2598 26.3811 23.1316 26.3815C23.0145 26.3817 22.7411 26.4887 22.5241 26.6191C22.307 26.7496 21.9544 26.8566 21.7406 26.8568C21.5268 26.857 21.1751 26.9634 20.9594 27.093C20.4724 27.3857 18.0604 27.5301 17.9602 27.2725C17.9282 27.1904 17.5662 27.0802 17.1559 27.0278C16.7455 26.9754 16.3284 26.9187 16.229 26.9017C16.1296 26.8848 15.7228 26.8421 15.325 26.8067C14.5659 26.7393 14.3564 26.7018 14.0594 26.5809C13.9599 26.5405 13.7972 26.5141 13.6978 26.5223C13.2265 26.5614 12.9746 26.487 12.9746 26.3089C12.9746 26.1879 12.9083 26.143 12.7938 26.1864C12.6844 26.2277 12.6129 26.1868 12.6129 26.083C12.6129 25.9885 12.4795 25.8249 12.3163 25.7196C12.1531 25.6142 11.9876 25.4284 11.9484 25.3068C11.9094 25.1852 11.6903 24.9717 11.4616 24.8324C11.1935 24.669 11.046 24.4872 11.046 24.3202C11.046 24.1777 10.8572 23.8479 10.6264 23.5872C10.2769 23.1922 10.2065 23.0203 10.2045 22.5564C10.2016 21.8435 9.99613 21.2626 9.83558 21.5129C9.74205 21.6586 9.72348 21.6532 9.72192 21.4792C9.71987 21.2485 9.67539 21.2384 9.1325 21.3455C8.9253 21.3864 8.75583 21.485 8.75583 21.5648C8.75583 21.8174 8.2996 22.1384 8.06721 22.0492C7.87026 21.9737 7.87616 21.947 8.1364 21.7378L8.42098 21.5089H7.98573C7.70742 21.5089 7.56133 21.5611 7.58061 21.6536C7.60038 21.7485 7.47961 21.7869 7.23106 21.7648C7.01856 21.746 6.78135 21.8052 6.69227 21.8992C6.60464 21.9915 6.43625 22.0421 6.31789 22.0117C6.19964 21.9811 6.02402 22.0206 5.92784 22.0993C5.83177 22.1779 5.70991 22.2165 5.65736 22.1851C5.60468 22.1536 5.11398 22.1916 4.56688 22.2695C4.01977 22.3475 3.52811 22.3679 3.47423 22.3148C3.42035 22.2617 3.19302 22.3083 2.96906 22.4184C2.67845 22.5614 2.54852 22.579 2.51489 22.4798C2.46005 22.3174 2.1264 22.29 2.1264 22.4478C2.1264 22.5067 1.92824 22.5493 1.68609 22.5426C1.33618 22.5328 1.15127 22.4315 0.78509 22.0492C0.531725 21.7847 0.323079 21.4572 0.321391 21.3213C0.318258 21.0632 0.91129 20.0998 1.23794 19.8326C1.34208 19.7474 1.59183 19.6901 1.79312 19.7052C1.99442 19.7203 2.28889 19.6488 2.44751 19.5464C2.60613 19.4439 2.79465 19.3958 2.86649 19.4397C2.93833 19.4834 3.03355 19.4611 3.07803 19.3901C3.12263 19.3191 3.53691 19.2389 3.99868 19.2119C5.01792 19.1524 6.34513 18.8864 6.34513 18.7416C6.34513 18.6836 6.55052 18.6703 6.8016 18.7121C7.16392 18.7725 7.31785 18.737 7.54795 18.5403C7.7073 18.404 7.9163 18.3222 8.01249 18.3586C8.10855 18.3949 8.30153 18.3538 8.44135 18.2673C8.58117 18.1807 8.93964 18.0365 9.23797 17.9468C9.53629 17.8572 9.83184 17.7396 9.89488 17.6856C9.9578 17.6317 10.0875 17.5875 10.183 17.5875C10.2784 17.5875 10.4258 17.4939 10.5106 17.3798C10.5953 17.2654 10.7083 17.2148 10.7614 17.2673C10.8147 17.3197 10.7784 17.4118 10.6809 17.4717C10.5599 17.5461 10.6375 17.5644 10.9255 17.5295C11.1575 17.5013 11.6156 17.4489 11.9435 17.4131C12.2714 17.3773 12.5746 17.2921 12.6174 17.2238C12.6602 17.1555 12.9344 17.0782 13.2266 17.0519C13.574 17.0208 13.8273 16.92 13.9581 16.7611C14.0682 16.6274 14.257 16.518 14.3777 16.518C14.741 16.518 15.8674 16.0101 15.8674 15.8462C15.8674 15.7558 15.9451 15.723 16.0583 15.7659C16.212 15.824 16.2179 15.8576 16.0885 15.9386C15.9788 16.0071 15.9733 16.0396 16.0712 16.0409C16.1502 16.0418 16.2517 15.9838 16.2967 15.9118C16.343 15.838 16.528 15.8105 16.7211 15.8486C16.9093 15.8857 17.0978 15.8612 17.1399 15.7941C17.1819 15.727 17.3332 15.6812 17.4761 15.6923ZM18.3986 18.5456C18.3986 18.615 18.5016 18.6552 18.6275 18.6347C18.9729 18.5786 19.6797 19.275 19.7725 19.7629C19.8159 19.9911 19.9238 20.2371 20.0122 20.3094C20.1006 20.3818 20.1531 20.5876 20.129 20.7669C20.1048 20.9462 20.1169 21.0262 20.1559 20.9445C20.2421 20.7637 20.8093 20.7449 20.8093 20.9227C20.8093 20.9956 20.7065 21.0174 20.5683 20.9742C20.37 20.9121 20.3272 20.9528 20.3272 21.2039C20.3272 21.3717 20.3814 21.5089 20.4477 21.5089C20.514 21.5089 20.5691 21.6826 20.5701 21.8951C20.5712 22.1076 20.6213 22.3582 20.6816 22.4522C20.7522 22.5622 20.7348 22.7024 20.6329 22.8461C20.5457 22.9688 20.5009 23.169 20.5332 23.291C20.5803 23.4686 20.5413 23.4998 20.3379 23.4474C20.1349 23.3951 20.0572 23.4567 19.9526 23.7526C19.8766 23.9672 19.8479 24.0688 19.7852 24.0969C19.7243 24.1243 19.6314 24.0824 19.4322 24.0077C19.2038 23.9221 19.1316 23.9299 19.1531 24.0374C19.1889 24.2161 18.7409 24.1556 18.6004 23.9628C18.5265 23.8614 18.4849 23.8647 18.4394 23.9754C18.4056 24.0575 18.3225 24.0908 18.2543 24.0493C18.1864 24.0079 17.9334 23.9564 17.6922 23.9349C17.4509 23.9133 17.0637 23.8638 16.8317 23.8248C16.5996 23.786 16.2191 23.7384 15.9861 23.7194C15.753 23.7003 15.4425 23.6109 15.2961 23.5207C15.0863 23.3917 14.9983 23.3876 14.8825 23.5018C14.6821 23.6994 13.8183 22.7973 13.8183 22.3902C13.8183 22.2142 13.7483 22.1031 13.6375 22.1031C13.5232 22.1031 13.4567 21.9896 13.4567 21.7948C13.4567 21.5866 13.3785 21.4665 13.2156 21.4245C12.9456 21.3549 12.9185 21.24 13.0954 20.9142C13.1692 20.7782 13.1725 20.6649 13.1039 20.623C13.0421 20.5854 13.1369 20.4016 13.3145 20.2148C13.5989 19.9157 14.3619 19.6713 15.3853 19.5516C15.4184 19.5477 15.5134 19.5021 15.5962 19.4503C15.6791 19.3983 15.8011 19.389 15.8674 19.4294C15.9337 19.4698 15.9888 19.4061 15.9897 19.2878C15.9913 19.1055 16.0094 19.1 16.1085 19.2511C16.2083 19.4035 16.2256 19.3992 16.2272 19.2214C16.2285 19.07 16.3272 19.0134 16.5906 19.0134C16.7895 19.0134 16.9522 18.9533 16.9522 18.8798C16.9522 18.7953 17.0824 18.7717 17.3061 18.8158C17.5564 18.8653 17.7416 18.8186 17.9389 18.6564C18.2553 18.3964 18.3986 18.3618 18.3986 18.5456Z" fill="#0038A8"/>
<path fill-rule="evenodd" clip-rule="evenodd" d="M13.0836 0.94179L13.5361 0.471099C13.9027 0.0896497 14.0721 0.000407457 14.4298 0.000407457C14.8107 0.000407457 14.9144 0.0650523 15.1884 0.473238C15.363 0.733242 15.5058 1.03234 15.5058 1.13786C15.5058 1.24339 15.6143 1.35782 15.7469 1.39193C15.9049 1.43268 15.9879 1.55401 15.9879 1.74438C15.9879 1.93344 15.9395 2.00498 15.8487 1.94984C15.7548 1.89256 15.7428 1.91775 15.8115 2.02755C15.9271 2.21198 16.1244 3.16204 16.1122 3.47623C16.1077 3.59066 16.0959 3.80444 16.0859 3.95155C16.0759 4.09867 16.1144 4.64672 16.1713 5.16958C16.2283 5.69244 16.2781 6.58546 16.282 7.15395C16.2883 8.05065 16.3184 8.19515 16.5089 8.24422C16.7085 8.29568 16.7122 8.32598 16.5503 8.57707C16.3199 8.93428 16.3264 9.48221 16.5659 9.88683C16.7202 10.1474 16.729 10.2652 16.6129 10.5163C16.5343 10.6862 16.4701 11.0275 16.4701 11.2747C16.4701 11.6023 16.3475 11.8959 16.0181 12.3575C15.3977 13.2266 15.3057 13.2668 14.6418 12.9591C14.1826 12.7463 14.0507 12.6085 13.8769 12.1597C13.7613 11.8615 13.6502 11.4233 13.6299 11.186C13.5152 9.84524 13.4684 9.17776 13.3911 7.78387C13.3441 6.93423 13.2748 6.18725 13.2372 6.12391C13.1243 5.93378 13.0462 4.32255 13.0656 2.58036L13.0836 0.94179Z" fill="#0038A8"/>
<path fill-rule="evenodd" clip-rule="evenodd" d="M0.993375 2.21994C1.0663 2.24537 1.19491 2.18417 1.27928 2.08388C1.49287 1.83018 1.72358 1.85525 2.3142 2.19653C2.63374 2.3812 2.87179 2.6254 2.95134 2.85011C3.02101 3.04737 3.16228 3.20886 3.26522 3.20886C3.38322 3.20886 3.45229 3.31604 3.45229 3.49892C3.45229 3.65852 3.50593 3.82167 3.5715 3.8616C3.64539 3.90664 3.62357 4.03521 3.51388 4.20015C3.38081 4.4005 3.3649 4.56746 3.44976 4.87725C3.51171 5.10339 3.54534 5.48745 3.52437 5.7307C3.50062 6.0077 3.53208 6.14506 3.60874 6.09836C3.68769 6.05024 3.70264 6.16349 3.65105 6.41814C3.59307 6.70381 3.62622 6.87267 3.77135 7.03084C3.95854 7.23475 3.95733 7.26481 3.75399 7.48643C3.53353 7.72659 3.5093 8.22236 3.67793 9.04741C3.68649 9.08888 3.80184 9.15067 3.93443 9.1849C4.20178 9.25382 4.25577 9.61792 4.03146 9.83906C3.93479 9.93437 3.89827 10.3523 3.92057 11.1071C3.94962 12.0904 3.91948 12.2933 3.68323 12.7077C3.28692 13.4029 2.56539 13.9401 2.15268 13.8472C1.67572 13.7399 1.13199 13.2281 1.13199 12.8865C1.13199 12.727 1.08932 12.5965 1.03713 12.5965C0.984937 12.5965 0.907192 12.3692 0.864402 12.0915C0.721568 11.1652 0.522324 10.2804 0.433731 10.1802C0.320307 10.0515 0.433007 9.62576 0.580662 9.62576C0.643099 9.62576 0.660096 9.57145 0.618512 9.50503C0.576806 9.4386 0.492552 9.41483 0.4312 9.45227C0.368522 9.49041 0.328142 9.3042 0.33911 9.0278C0.349959 8.75698 0.30295 8.50007 0.234727 8.45669C0.0794784 8.3583 -0.0425037 7.59208 0.112022 7.68619C0.174941 7.72457 0.191696 7.64401 0.150473 7.50165C0.110214 7.36273 0.0488633 7.14919 0.0140287 7.02715C-0.020806 6.90511 0.0114966 6.65105 0.0858667 6.4627C0.327419 5.8512 0.416132 4.84196 0.272816 4.33776C0.198446 4.07633 0.145411 3.75548 0.154933 3.62477C0.164455 3.49405 0.177955 3.27647 0.185067 3.14112C0.200495 2.84535 0.806426 2.15482 0.993375 2.21994ZM0.762309 10.0046C0.723858 10.0993 0.695291 10.0711 0.689505 9.9327C0.684322 9.80745 0.71277 9.73734 0.752787 9.77679C0.792805 9.81625 0.797144 9.9188 0.762309 10.0046Z" fill="#0038A8"/>
</svg>
