<svg width="439" height="251" viewBox="0 0 439 251" fill="none" xmlns="http://www.w3.org/2000/svg">
<path fill-rule="evenodd" clip-rule="evenodd" d="M65.9471 1.16389C50.2488 7.02778 38.1133 14.712 32.0537 22.6289C30.5453 24.5992 28.5661 26.9078 27.6557 27.7591C26.7444 28.6105 25.3659 30.6341 24.5929 32.2559C23.8199 33.8777 22.2473 36.1532 21.0997 37.3126C19.9512 38.4719 18.2385 40.8706 17.2924 42.6423C16.3472 44.4139 14.662 47.1445 13.5483 48.7103C12.4345 50.276 11.1184 53.1702 10.6238 55.1423C9.03018 61.4953 6.82382 67.8355 4.99388 71.3218C4.01205 73.1918 3.20881 75.5841 3.20881 76.6377C3.20881 77.6913 2.5741 80.0799 1.79743 81.9444C-0.106699 86.5203 -0.62692 92.2858 0.864143 92.2858C2.78109 92.2858 5.29612 95.7813 5.40053 98.59C5.4619 100.248 5.91067 101.083 6.59942 100.82C8.2123 100.201 9.61453 101.343 9.05217 102.816C8.65559 103.852 7.98699 103.751 5.50402 102.28C2.44771 100.47 2.44496 100.471 1.85238 102.345C1.17004 104.503 1.46679 105.103 5.9006 110.523C9.65665 115.115 14.6867 118.029 18.8567 118.029C21.6337 118.029 21.7317 117.903 21.184 115.041C20.8699 113.397 19.6316 111.185 18.4318 110.123C16.3234 108.257 16.2593 107.807 16.4773 96.3789L16.7026 84.5647L19.9292 81.7597C24.0132 78.2099 25.4557 75.3754 24.777 72.2347C24.3347 70.1873 24.7972 69.3184 27.4642 67.1928C29.2356 65.7806 30.6854 64.0522 30.6854 63.3516C30.6854 62.651 31.322 61.4383 32.0995 60.6578C32.8771 59.8772 33.7536 57.2045 34.0467 54.7176C34.4699 51.131 35.3134 49.4163 38.1279 46.4164C40.0797 44.3367 41.6852 41.9114 41.6962 41.0278C41.7237 38.8921 44.2396 35.9059 47.6577 33.9531C49.1854 33.0806 51.1024 31.1986 51.9184 29.7708C53.317 27.3234 59.1219 24.0476 64.4258 22.7117C65.6604 22.4 67.4345 21.3786 68.3696 20.4399C69.3038 19.5021 71.0137 18.7344 72.1696 18.7344C73.983 18.7344 74.4309 19.4635 75.4494 24.0724C76.6153 29.346 76.1583 35.7257 74.5445 36.7269C74.0975 37.0036 73.7321 38.2549 73.7321 39.5071C73.7321 40.7593 73.0937 42.7627 72.3125 43.9588C70.9698 46.0164 67.7825 53.8037 66.644 57.8086C66.3565 58.8199 64.9487 61.1552 63.5154 62.9976C62.082 64.8401 60.9097 67.168 60.9097 68.171C60.9097 69.1741 60.2915 70.51 59.5358 71.1397C58.7802 71.7695 58.162 73.099 58.162 74.0956C58.162 75.0913 57.3377 76.9586 56.3302 78.2439C55.3228 79.5301 54.4985 81.105 54.4985 81.744C54.4985 82.3839 52.4386 83.6508 49.9218 84.5592C46.631 85.747 44.7186 87.162 43.1158 89.592C41.8904 91.451 39.8708 94.0731 38.628 95.4191C35.8528 98.4264 36.2842 100.938 40.1887 104.501C43.8632 107.854 46.1557 108.344 51.803 106.983C55.1423 106.18 56.7406 105.259 57.4275 103.745C59.9993 98.0807 78.8528 95.0844 88.8122 98.7574C91.3483 99.6933 96.491 100.75 100.241 101.106C106.515 101.7 107.349 102.034 110.728 105.293C112.748 107.242 114.784 108.835 115.252 108.835C115.721 108.835 117.522 109.715 119.256 110.79C123.331 113.319 122.066 114.731 115.611 114.863C109.005 114.998 97.961 117.957 92.6964 121.004C90.2812 122.401 87.9118 123.545 87.4301 123.545C86.9483 123.545 86.5545 123.869 86.5545 124.263C86.5545 124.659 84.4938 127.151 81.9751 129.802C79.4564 132.452 77.3911 134.922 77.3847 135.289C77.3792 135.656 75.1288 137.521 72.3857 139.433C67.8603 142.587 60.9097 149.899 60.9097 151.506C60.9097 151.862 59.7236 153.681 58.2747 155.548C51.2883 164.544 41.2163 193.989 41.5927 204.317C41.6357 205.508 40.9827 207.94 40.1401 209.721C38.8057 212.543 38.7553 213.665 39.7426 218.462C40.3654 221.49 41.8428 226.163 43.0252 228.848C44.2085 231.533 44.9668 233.939 44.7113 234.196C44.4558 234.452 45.5237 236.525 47.0835 238.8C48.6432 241.076 49.919 243.299 49.919 243.741C49.919 244.183 51.2581 245.825 52.8957 247.391C56.8212 251.145 62.6682 251.941 71.4424 249.916C74.9685 249.103 79.9143 247.997 82.433 247.459C85.3437 246.837 87.6884 245.662 88.8671 244.234C90.088 242.754 92.2687 241.696 95.2435 241.139C99.3485 240.369 102.834 238.908 108.626 235.531C111.738 233.717 116.069 228.57 118.458 223.846C120.892 219.034 124.807 213.537 126.574 212.45C127.232 212.046 127.769 211.246 127.769 210.672C127.769 208.994 131.522 201.693 132.384 201.693C133.52 201.693 138.964 189.897 138.315 188.842C138.015 188.355 138.405 186.724 139.18 185.217C139.957 183.71 140.592 181.435 140.592 180.159C140.592 178.885 141.622 175.503 142.882 172.644C144.141 169.786 145.185 166.361 145.201 165.034C145.218 163.706 146.029 160.344 147.003 157.563C148.244 154.021 148.784 149.991 148.805 144.114C148.827 137.923 149.184 135.431 150.167 134.613C153.073 132.192 158.82 129.842 166.237 128.042C170.518 127.003 174.672 125.566 175.468 124.849C177.38 123.125 178.633 123.204 181.614 125.239C189.289 130.476 194.672 133.518 198.685 134.882C204.326 136.8 212.883 136.895 215.291 135.067C216.268 134.324 218.511 133.697 220.274 133.672C222.037 133.648 225.128 132.61 227.143 131.365C229.158 130.122 233.794 127.624 237.447 125.815C241.099 124.006 244.087 122.214 244.087 121.832C244.087 121.451 243.531 120.374 242.851 119.441C241.892 118.124 240.937 117.88 238.598 118.35C236.824 118.705 235.075 118.533 234.352 117.93C233.673 117.365 231.78 117.138 230.133 117.424C214.712 120.1 209.667 120.284 202.414 118.434C198.336 117.394 194.629 114.308 194.629 111.952C194.629 110.823 197.651 103.957 201.344 96.697C205.036 89.4366 208.325 82.2672 208.652 80.7658C208.979 79.2635 209.867 75.1731 210.623 71.6748C211.42 67.9954 211.665 64.8952 211.205 64.3197C210.768 63.7727 210.123 61.9771 209.772 60.3295C209.416 58.6535 208.259 56.8671 207.148 56.2759C206.056 55.694 204.623 54.4565 203.965 53.5251C202.296 51.165 196.245 51.2993 192.006 53.7899C186.108 57.256 182.691 62.0975 181.831 68.2106C181.409 71.2032 180.407 74.9277 179.604 76.4879C178.801 78.0471 178.143 80.398 178.143 81.7128C178.143 83.0275 177.548 85.2589 176.82 86.6711C176.092 88.0842 175.208 91.4767 174.854 94.211C174.176 99.4607 169.555 107.915 167.364 107.915C166.708 107.915 165.259 108.512 164.144 109.241C163.028 109.97 158.867 111.458 154.896 112.547L147.677 114.53L143.906 111.846C141.405 110.067 140.158 108.497 140.203 107.19C140.279 105.054 135.518 99.9498 130.879 97.1935C129.315 96.264 125.787 94.0069 123.037 92.1782C117.517 88.5043 115.24 87.6355 104.263 85.0088C100.15 84.025 95.5339 82.5706 94.0052 81.7771C92.4757 80.9828 89.1703 80.3337 86.6598 80.3337C81.5556 80.3337 77.3956 79.0677 77.3956 77.5148C77.3956 76.9503 78.8382 74.7971 80.6012 72.7294C82.3643 70.6617 83.8068 68.6887 83.8068 68.3448C83.8068 68.001 85.1624 66.2762 86.8201 64.5118C88.4769 62.7485 90.3032 59.6906 90.8775 57.7185C91.4527 55.7454 92.6076 51.7534 93.4447 48.8473C94.2855 45.9254 94.8616 41.1988 94.7325 38.2742C94.6042 35.3653 94.7682 31.9507 95.0961 30.6865C97.6551 20.8361 95.434 8.10897 90.5304 4.51507C84.8445 0.347464 72.601 -1.32122 65.9471 1.16389ZM199.378 3.17184C191.908 4.75687 189.323 12.8953 194.236 19.3614L196.591 22.4598L207.746 22.2869C216.297 22.1536 219.559 21.7482 221.722 20.5465C223.274 19.6841 226.057 18.4788 227.904 17.8665C229.753 17.2542 231.265 16.4488 231.265 16.0774C231.265 15.705 230.028 14.2119 228.517 12.7583C227.006 11.3048 225.769 9.44853 225.769 8.63303C225.769 6.11482 223.749 4.9435 219.404 4.94258C217.112 4.94166 212.352 4.39831 208.825 3.73451C205.299 3.0707 201.048 2.81787 199.378 3.17184ZM307.283 27.0733C306.528 27.5541 303.935 28.7981 301.521 29.837C296.522 31.9884 292.962 36.292 288.799 45.2193C287.311 48.4087 285.533 51.2349 284.847 51.4988C283.39 52.0596 281.638 56.6336 281.638 59.8726C281.638 61.1092 280.803 63.2992 279.782 64.7389C278.761 66.1778 277.291 68.8817 276.514 70.7481C274.657 75.209 272.964 73.669 272.948 67.5054C272.943 65.0387 272.629 62.7098 272.251 62.3301C271.872 61.9504 271.564 59.4846 271.564 56.8506C271.564 48.4078 270.832 46.5763 266.48 44.1344L262.534 41.9215L259.264 44.1519C257.037 45.6707 255.994 47.0875 255.994 48.5935C255.994 49.8099 255.578 51.0621 255.069 51.3774C253.861 52.1276 254.021 70.8363 255.297 78.0352C255.835 81.0692 256.187 86.0974 256.079 89.2095C255.963 92.545 256.297 95.123 256.891 95.4926C257.446 95.8365 257.679 96.8165 257.409 97.6707C257.139 98.5248 257.342 100.662 257.859 102.42C258.377 104.178 259.183 109.854 259.651 115.033C260.564 125.144 261.559 128.126 264.04 128.172C264.903 128.187 266.411 128.808 267.388 129.551C272.819 133.674 284.298 126.846 284.415 119.423C284.431 118.403 285.06 116.751 285.814 115.751C286.781 114.466 287.016 112.809 286.612 110.107C286.193 107.302 286.457 105.645 287.604 103.889C288.637 102.306 289.336 98.7813 289.663 93.5058C290.152 85.657 291.262 82.6744 295.584 77.6086C296.215 76.8676 296.602 75.4967 296.445 74.5617C296.287 73.6276 296.806 71.8688 297.599 70.6543C298.392 69.4398 299.04 67.2562 299.04 65.8018C299.04 58.1754 305.615 47.0655 311.703 44.4047C314.728 43.0827 315.161 43.0827 316.56 44.4047C318.146 45.9034 320.378 52.8163 319.926 54.8307C319.785 55.4568 320.352 57.8315 321.185 60.107C322.019 62.3825 323.177 67.133 323.757 70.6626C324.337 74.1931 325.262 77.6251 325.812 78.2899C326.361 78.9546 326.758 80.9055 326.694 82.6266C326.629 84.3468 327.179 86.9138 327.915 88.3305C328.652 89.7473 329.523 92.3547 329.85 94.1246C330.177 95.8944 331.312 98.4282 332.373 99.7549C333.434 101.082 335.126 103.544 336.134 105.226C337.141 106.91 338.445 109.089 339.031 110.072C342.641 116.118 357.762 119.594 371.614 117.563C375.459 116.998 376.755 117.318 382.982 120.365C391.319 124.445 396.906 125.366 400.195 123.203C401.447 122.38 404.208 121.706 406.331 121.706C408.454 121.706 411.456 121.313 413.003 120.831C414.55 120.35 417.813 119.457 420.254 118.848C425.533 117.53 434.904 109.907 436.49 105.639C437.059 104.11 437.977 101.905 438.529 100.741C439.403 98.898 439.182 98.3326 436.834 96.4065C433.374 93.5674 431.082 93.5794 424.793 96.4672C413.906 101.466 401.467 104.712 398.764 103.261C396.978 102.301 397.026 102.132 400.161 98.4255C404.702 93.0562 410.48 80.9662 411.881 73.8979C414.053 62.9443 414.489 56.7329 413.528 50.4534C411.621 37.9874 410.974 36.2405 406.866 32.46C403.084 28.9801 402.83 28.8964 396.007 28.8725C391.973 28.8578 387.716 29.4003 385.932 30.1542C382.702 31.5204 376.891 36.7048 376.891 38.22C376.891 39.6303 369.648 51.6817 367.712 53.492C364.68 56.3274 363.272 62.1591 363.187 72.2403C362.975 97.2349 362.829 98.9486 360.863 99.6446C358.447 100.501 354.161 97.2091 349.66 91.0409C346.259 86.3787 344.368 80.7318 345.892 79.7857C346.977 79.1136 345.743 74.5176 344.238 73.6221C343.559 73.2176 343.003 71.7236 343.003 70.3013C343.003 68.879 341.766 64.7049 340.255 61.0264C338.744 57.3479 337.508 53.0093 337.508 51.3848C337.508 49.6251 336.404 46.797 334.776 44.3854C333.274 42.1605 332.038 39.8069 332.029 39.155C331.998 36.9025 325.124 30.8842 319.849 28.491C314.445 26.039 309.74 25.5085 307.283 27.0733ZM392.782 57.119C393.25 59.9903 392.176 64.8437 390.473 66.1419C387.8 68.1802 387.198 62.8036 388.651 59.6032C389.248 58.2876 389.472 56.7825 389.15 56.2576C388.619 55.3952 390.249 53.72 391.654 53.6851C391.966 53.6777 392.474 55.2232 392.782 57.119ZM390.629 68.0635C390.629 68.8992 389.564 71.8431 388.262 74.6049C386.594 78.1464 385.609 79.3398 384.924 78.6521C383.89 77.6141 385.501 69.9216 387.22 67.692C388.491 66.0426 390.629 66.2753 390.629 68.0635ZM127.581 135.306C130.254 138.847 128.416 158.394 124.752 165.377C124.221 166.389 123.873 168.724 123.978 170.567C124.088 172.516 123.607 174.481 122.826 175.265C122.088 176.006 120.79 179.049 119.943 182.028C119.096 185.006 117.675 188.27 116.783 189.282C115.893 190.293 113.655 193.957 111.811 197.422C109.966 200.888 106.723 205.569 104.604 207.823C102.485 210.077 100.359 212.827 99.8797 213.933C98.167 217.889 93.6407 222.904 89.6777 225.235C86.5069 227.101 84.7008 227.539 81.2066 227.291C78.2492 227.082 76.2224 227.429 75.138 228.331C74.223 229.092 71.381 229.751 68.6526 229.832C61.7257 230.042 59.403 227.484 58.5485 218.702C58.2041 215.163 57.3725 211.629 56.7003 210.85C55.8476 209.862 55.5737 207.374 55.7944 202.622C56.0738 196.624 56.3907 195.586 58.4496 193.926C59.9636 192.704 61.4904 189.773 62.7818 185.604C66.9967 172.004 70.7307 165.787 81.2882 154.786C84.1842 151.768 86.5545 148.812 86.5545 148.216C86.5545 146.546 89.4075 143.772 91.1257 143.772C91.9729 143.772 95.2875 141.66 98.4913 139.078C101.696 136.497 105.163 134.012 106.198 133.559C107.232 133.105 112.199 132.959 117.237 133.235C124.397 133.626 126.654 134.079 127.581 135.306Z" fill="#D9D9D9"/>
</svg>
